@startuml
skinparam state {
	BackgroundColor #Beige
}

state Normal1: IME OFF
state "Normal" as Normal1

state Insert2: IME OFF
state "Insert" as Insert2

state Insert3: IME ON
state "Insert" as Insert3 #Lime

state Normal4: IME OFF
state "Normal" as Normal4

state Insert5: IME ON
state "Insert" as Insert5 #Lime;text:Red

[*] -> Normal1
Normal1 -> Insert2: i
Insert2 -> Insert3 : <C-^>
Insert3 -> Normal4 : ESC\nor\n<C-c>
Normal4 -> Insert5 : i
@enduml
